<svg width="900" height="65" viewBox="0 0 900 65" fill="none" xmlns="http://www.w3.org/2000/svg">
<path d="M0 0L15 3.7C30 7.3 60 14.7 90 21C120 27.3 150 32.7 180 31.3C210 30 240 22 270 15C300 8 330 2 360 4.5C390 7 420 18 450 23.7C480 29.3 510 29.7 540 29.2C570 28.7 600 27.3 630 24.5C660 21.7 690 17.3 720 19.7C750 22 780 31 810 35.2C840 39.3 870 38.7 885 38.3L900 38V65H885C870 65 840 65 810 65C780 65 750 65 720 65C690 65 660 65 630 65C600 65 570 65 540 65C510 65 480 65 450 65C420 65 390 65 360 65C330 65 300 65 270 65C240 65 210 65 180 65C150 65 120 65 90 65C60 65 30 65 15 65H0V0Z" fill="#7F30F7"/>
</svg>
