<svg id="visual" viewBox="0 0 900 150" width="900" height="150" xmlns="http://www.w3.org/2000/svg" xmlns:xlink="http://www.w3.org/1999/xlink" version="1.1"><path d="M0 86L15 89.7C30 93.3 60 100.7 90 107C120 113.3 150 118.7 180 117.3C210 116 240 108 270 101C300 94 330 88 360 90.5C390 93 420 104 450 109.7C480 115.3 510 115.7 540 115.2C570 114.7 600 113.3 630 110.5C660 107.7 690 103.3 720 105.7C750 108 780 117 810 121.2C840 125.3 870 124.7 885 124.3L900 124L900 151L885 151C870 151 840 151 810 151C780 151 750 151 720 151C690 151 660 151 630 151C600 151 570 151 540 151C510 151 480 151 450 151C420 151 390 151 360 151C330 151 300 151 270 151C240 151 210 151 180 151C150 151 120 151 90 151C60 151 30 151 15 151L0 151Z" fill="#7f30f7" stroke-linecap="round" stroke-linejoin="miter"></path></svg>